<svg width="171" height="31" viewBox="0 0 171 31" fill="none" xmlns="http://www.w3.org/2000/svg">
<path d="M6.92103 0.897484V2.16825H4.78154V9.52723H6.92103V10.8052H0.962055V9.52723H3.10154V2.16825H0.962055V0.897484H6.92103ZM9.52508 10.8052V3.22364H10.9107L11.0328 4.20723C11.3487 3.82432 11.722 3.53236 12.1528 3.33133C12.5835 3.12552 13.0263 3.02261 13.481 3.02261C14.1894 3.02261 14.7182 3.22124 15.0676 3.61851C15.4218 4.01577 15.5989 4.56859 15.5989 5.27697V10.8052H13.9907V6.07389C13.9907 5.41817 13.9237 4.9515 13.7897 4.67389C13.6605 4.3915 13.3661 4.2503 12.9066 4.2503C12.5381 4.2503 12.2006 4.36518 11.8943 4.59492C11.5928 4.81988 11.3391 5.07595 11.1333 5.36312V10.8052H9.52508ZM24.0686 10.8052H22.0584L21.204 5.42056L20.285 10.8052H18.3178L17.0327 3.22364H18.5835L19.3732 9.80723L20.4286 4.18569H22.0368L23.0204 9.80723L23.8102 3.22364H25.3035L24.0686 10.8052ZM32.5455 8.94569C32.5455 9.24723 32.591 9.465 32.6819 9.59902C32.7728 9.73304 32.9188 9.83355 33.1198 9.90056L32.7609 10.9918C32.3875 10.9488 32.0645 10.8459 31.7916 10.6831C31.5236 10.5204 31.3226 10.2739 31.1886 9.94364C30.911 10.2978 30.5592 10.5635 30.1332 10.7406C29.7072 10.9129 29.2525 10.999 28.7691 10.999C27.9985 10.999 27.3906 10.7836 26.9455 10.3529C26.5004 9.91731 26.2778 9.34774 26.2778 8.64415C26.2778 7.84483 26.5889 7.22979 27.2111 6.79902C27.8334 6.36825 28.7236 6.15287 29.8819 6.15287H30.966V5.65748C30.966 5.16449 30.8176 4.8127 30.5209 4.6021C30.2241 4.38671 29.8101 4.27902 29.2788 4.27902C29.0299 4.27902 28.7284 4.31253 28.3742 4.37954C28.02 4.44176 27.6491 4.53988 27.2614 4.67389L26.8665 3.53953C27.3404 3.36244 27.8046 3.23321 28.2593 3.15184C28.714 3.06569 29.1352 3.02261 29.5229 3.02261C30.5376 3.02261 31.2939 3.24757 31.7916 3.69748C32.2942 4.1474 32.5455 4.76962 32.5455 5.56415V8.94569ZM29.2573 9.81441C29.5828 9.81441 29.901 9.72825 30.2122 9.55595C30.5233 9.38364 30.7745 9.14193 30.966 8.83082V7.158H30.0757C29.3195 7.158 28.7787 7.28483 28.4532 7.53851C28.1277 7.7874 27.965 8.13201 27.965 8.57236C27.965 9.40039 28.3957 9.81441 29.2573 9.81441ZM35.4367 10.8052V9.65646H36.5495V4.36518H35.4367V3.22364H37.7772L38.0716 4.98261C38.354 4.34603 38.7034 3.86261 39.1198 3.53236C39.541 3.19731 40.0818 3.02979 40.7424 3.02979C40.9673 3.02979 41.1683 3.04894 41.3454 3.08723C41.5273 3.12073 41.7068 3.1662 41.8839 3.22364L41.6111 6.01646H40.4624V4.47287C39.9263 4.49201 39.4644 4.7074 39.0767 5.11902C38.689 5.52586 38.3827 6.10022 38.1577 6.8421V9.65646H39.687V10.8052H35.4367ZM48.4295 4.78029e-05L50.0377 0.179535V10.8052H48.6233L48.5085 9.87184C48.25 10.2308 47.9413 10.5084 47.5823 10.7047C47.2233 10.9009 46.8213 10.999 46.3762 10.999C45.7252 10.999 45.1891 10.8339 44.7679 10.5036C44.3515 10.1686 44.0404 9.70193 43.8346 9.10364C43.6288 8.50535 43.5259 7.80894 43.5259 7.01441C43.5259 6.24381 43.6456 5.55936 43.8849 4.96107C44.1242 4.358 44.4664 3.88415 44.9115 3.53953C45.3567 3.19492 45.8927 3.02261 46.5197 3.02261C47.2999 3.02261 47.9365 3.29783 48.4295 3.84825V4.78029e-05ZM46.9433 4.25748C46.4025 4.25748 45.9813 4.48244 45.6797 4.93236C45.3782 5.37748 45.2274 6.0715 45.2274 7.01441C45.2274 7.98124 45.3638 8.68244 45.6367 9.118C45.9143 9.54877 46.302 9.76415 46.7997 9.76415C47.1635 9.76415 47.4794 9.65885 47.7474 9.44825C48.0155 9.23765 48.2428 8.98398 48.4295 8.68723V5.09748C48.2428 4.82945 48.025 4.62364 47.7762 4.48005C47.5273 4.33167 47.2497 4.25748 46.9433 4.25748ZM52.6561 6.97133V5.6503H58.5864V6.97133H52.6561ZM68.0037 5.85133C68.0037 6.87082 67.8625 7.76825 67.5802 8.54364C67.2978 9.31424 66.8766 9.91731 66.3166 10.3529C65.7566 10.7836 65.0625 10.999 64.2345 10.999C63.4065 10.999 62.7125 10.7884 62.1525 10.3672C61.5925 9.94603 61.1713 9.35013 60.8889 8.57953C60.6065 7.80894 60.4653 6.90432 60.4653 5.86569C60.4653 4.8462 60.6065 3.94877 60.8889 3.17338C61.1713 2.398 61.5925 1.79253 62.1525 1.35697C62.7125 0.916629 63.4065 0.696458 64.2345 0.696458C65.0625 0.696458 65.7566 0.909449 66.3166 1.33543C66.8766 1.76142 67.2978 2.3621 67.5802 3.13748C67.8625 3.90808 68.0037 4.8127 68.0037 5.85133ZM66.2807 5.85133C66.2807 4.56859 66.1227 3.60654 65.8068 2.96518C65.4909 2.31902 64.9668 1.99595 64.2345 1.99595C63.5022 1.99595 62.9781 2.32142 62.6622 2.97236C62.3463 3.61851 62.1884 4.58295 62.1884 5.86569C62.1884 7.14364 62.3511 8.1033 62.6766 8.74466C63.002 9.38124 63.5213 9.69953 64.2345 9.69953C64.9668 9.69953 65.4909 9.37885 65.8068 8.73748C66.1227 8.09133 66.2807 7.12928 66.2807 5.85133ZM71.4263 3.22364V8.5221C71.4263 8.97201 71.5148 9.2927 71.6919 9.48415C71.8738 9.6756 72.1466 9.77133 72.5104 9.77133C72.855 9.77133 73.1876 9.66842 73.5083 9.46261C73.829 9.2568 74.0827 9.00552 74.2693 8.70877V3.22364H75.8775V10.8052H74.4919L74.3914 9.83595C74.109 10.2141 73.7524 10.5036 73.3216 10.7047C72.8909 10.9009 72.4505 10.999 72.0006 10.999C71.2635 10.999 70.7155 10.798 70.3565 10.3959C69.9975 9.98911 69.818 9.4315 69.818 8.72312V3.22364H71.4263ZM84.7636 10.4031C84.486 10.5802 84.1534 10.7238 83.7657 10.8339C83.378 10.944 82.9736 10.999 82.5524 10.999C81.6717 10.999 81.0016 10.7717 80.5421 10.317C80.0874 9.85748 79.86 9.25441 79.86 8.50774V4.39389H78.1729V3.22364H79.86V1.52928L81.4683 1.33543V3.22364H84.0242L83.8447 4.39389H81.4683V8.49338C81.4683 8.90022 81.5688 9.20415 81.7698 9.40518C81.9756 9.60142 82.3106 9.69953 82.7749 9.69953C83.0525 9.69953 83.3062 9.66603 83.5359 9.59902C83.7705 9.53201 83.9859 9.44586 84.1821 9.34056L84.7636 10.4031ZM92.9749 10.8052H90.9646L90.1103 5.42056L89.1913 10.8052H87.2241L85.939 3.22364H87.4897L88.2795 9.80723L89.3349 4.18569H90.9431L91.9267 9.80723L92.7164 3.22364H94.2097L92.9749 10.8052ZM101.452 8.94569C101.452 9.24723 101.497 9.465 101.588 9.59902C101.679 9.73304 101.825 9.83355 102.026 9.90056L101.667 10.9918C101.294 10.9488 100.971 10.8459 100.698 10.6831C100.43 10.5204 100.229 10.2739 100.095 9.94364C99.8172 10.2978 99.4654 10.5635 99.0394 10.7406C98.6134 10.9129 98.1587 10.999 97.6753 10.999C96.9047 10.999 96.2969 10.7836 95.8517 10.3529C95.4066 9.91731 95.184 9.34774 95.184 8.64415C95.184 7.84483 95.4952 7.22979 96.1174 6.79902C96.7396 6.36825 97.6299 6.15287 98.7881 6.15287H99.8723V5.65748C99.8723 5.16449 99.7239 4.8127 99.4271 4.6021C99.1304 4.38671 98.7164 4.27902 98.1851 4.27902C97.9362 4.27902 97.6346 4.31253 97.2805 4.37954C96.9263 4.44176 96.5553 4.53988 96.1676 4.67389L95.7728 3.53953C96.2466 3.36244 96.7109 3.23321 97.1656 3.15184C97.6203 3.06569 98.0415 3.02261 98.4292 3.02261C99.4439 3.02261 100.2 3.24757 100.698 3.69748C101.2 4.1474 101.452 4.76962 101.452 5.56415V8.94569ZM98.1635 9.81441C98.489 9.81441 98.8073 9.72825 99.1184 9.55595C99.4295 9.38364 99.6808 9.14193 99.8723 8.83082V7.158H98.982C98.2258 7.158 97.6849 7.28483 97.3594 7.53851C97.034 7.7874 96.8712 8.13201 96.8712 8.57236C96.8712 9.40039 97.302 9.81441 98.1635 9.81441ZM104.343 10.8052V9.65646H105.456V4.36518H104.343V3.22364H106.683L106.978 4.98261C107.26 4.34603 107.61 3.86261 108.026 3.53236C108.447 3.19731 108.988 3.02979 109.649 3.02979C109.874 3.02979 110.075 3.04894 110.252 3.08723C110.434 3.12073 110.613 3.1662 110.79 3.22364L110.517 6.01646H109.369V4.47287C108.833 4.49201 108.371 4.7074 107.983 5.11902C107.595 5.52586 107.289 6.10022 107.064 6.8421V9.65646H108.593V10.8052H104.343ZM117.336 4.78029e-05L118.944 0.179535V10.8052H117.53L117.415 9.87184C117.156 10.2308 116.848 10.5084 116.489 10.7047C116.13 10.9009 115.728 10.999 115.282 10.999C114.631 10.999 114.095 10.8339 113.674 10.5036C113.258 10.1686 112.947 9.70193 112.741 9.10364C112.535 8.50535 112.432 7.80894 112.432 7.01441C112.432 6.24381 112.552 5.55936 112.791 4.96107C113.03 4.358 113.373 3.88415 113.818 3.53953C114.263 3.19492 114.799 3.02261 115.426 3.02261C116.206 3.02261 116.843 3.29783 117.336 3.84825V4.78029e-05ZM115.85 4.25748C115.309 4.25748 114.888 4.48244 114.586 4.93236C114.284 5.37748 114.134 6.0715 114.134 7.01441C114.134 7.98124 114.27 8.68244 114.543 9.118C114.821 9.54877 115.208 9.76415 115.706 9.76415C116.07 9.76415 116.386 9.65885 116.654 9.44825C116.922 9.23765 117.149 8.98398 117.336 8.68723V5.09748C117.149 4.82945 116.931 4.62364 116.682 4.48005C116.434 4.33167 116.156 4.25748 115.85 4.25748ZM7.32308 17.8975L7.88308 27.8052H6.36103L6.12411 22.9806C6.0906 22.2578 6.07624 21.583 6.08103 20.9559C6.08582 20.3242 6.09778 19.7929 6.11693 19.3621L4.65949 26.0606H3.20923L1.64411 19.3621C1.67282 19.7737 1.69197 20.3098 1.70154 20.9703C1.7159 21.6308 1.71111 22.3057 1.68718 22.9949L1.49334 27.8052H3.93763e-06L0.560004 17.8975H2.5559L3.97026 24.5385L5.32 17.8975H7.32308ZM15.3189 25.9457C15.3189 26.2472 15.3644 26.465 15.4553 26.599C15.5463 26.733 15.6923 26.8336 15.8933 26.9006L15.5343 27.9918C15.161 27.9488 14.8379 27.8459 14.5651 27.6831C14.297 27.5204 14.096 27.2739 13.962 26.9436C13.6844 27.2978 13.3326 27.5635 12.9066 27.7406C12.4806 27.9129 12.0259 27.999 11.5425 27.999C10.7719 27.999 10.1641 27.7836 9.71893 27.3529C9.2738 26.9173 9.05123 26.3477 9.05123 25.6442C9.05123 24.8448 9.36235 24.2298 9.98457 23.799C10.6068 23.3683 11.497 23.1529 12.6553 23.1529H13.7394V22.6575C13.7394 22.1645 13.5911 21.8127 13.2943 21.6021C12.9976 21.3867 12.5835 21.279 12.0523 21.279C11.8034 21.279 11.5018 21.3125 11.1476 21.3795C10.7935 21.4418 10.4225 21.5399 10.0348 21.6739L9.63995 20.5395C10.1138 20.3624 10.5781 20.2332 11.0328 20.1518C11.4875 20.0657 11.9087 20.0226 12.2964 20.0226C13.3111 20.0226 14.0673 20.2476 14.5651 20.6975C15.0676 21.1474 15.3189 21.7696 15.3189 22.5642V25.9457ZM12.0307 26.8144C12.3562 26.8144 12.6745 26.7283 12.9856 26.5559C13.2967 26.3836 13.548 26.1419 13.7394 25.8308V24.158H12.8492C12.0929 24.158 11.5521 24.2848 11.2266 24.5385C10.9011 24.7874 10.7384 25.132 10.7384 25.5724C10.7384 26.4004 11.1692 26.8144 12.0307 26.8144ZM18.1384 27.8052V20.2236H19.524L19.6461 21.2072C19.962 20.8243 20.3353 20.5324 20.7661 20.3313C21.1968 20.1255 21.6396 20.0226 22.0943 20.0226C22.8026 20.0226 23.3315 20.2212 23.6809 20.6185C24.0351 21.0158 24.2122 21.5686 24.2122 22.277V27.8052H22.604V23.0739C22.604 22.4182 22.537 21.9515 22.403 21.6739C22.2737 21.3915 21.9794 21.2503 21.5199 21.2503C21.1514 21.2503 20.8139 21.3652 20.5076 21.5949C20.2061 21.8199 19.9524 22.0759 19.7466 22.3631V27.8052H18.1384ZM32.5455 25.9457C32.5455 26.2472 32.591 26.465 32.6819 26.599C32.7728 26.733 32.9188 26.8336 33.1198 26.9006L32.7609 27.9918C32.3875 27.9488 32.0645 27.8459 31.7916 27.6831C31.5236 27.5204 31.3226 27.2739 31.1886 26.9436C30.911 27.2978 30.5592 27.5635 30.1332 27.7406C29.7072 27.9129 29.2525 27.999 28.7691 27.999C27.9985 27.999 27.3906 27.7836 26.9455 27.3529C26.5004 26.9173 26.2778 26.3477 26.2778 25.6442C26.2778 24.8448 26.5889 24.2298 27.2111 23.799C27.8334 23.3683 28.7236 23.1529 29.8819 23.1529H30.966V22.6575C30.966 22.1645 30.8176 21.8127 30.5209 21.6021C30.2241 21.3867 29.8101 21.279 29.2788 21.279C29.0299 21.279 28.7284 21.3125 28.3742 21.3795C28.02 21.4418 27.6491 21.5399 27.2614 21.6739L26.8665 20.5395C27.3404 20.3624 27.8046 20.2332 28.2593 20.1518C28.714 20.0657 29.1352 20.0226 29.5229 20.0226C30.5376 20.0226 31.2939 20.2476 31.7916 20.6975C32.2942 21.1474 32.5455 21.7696 32.5455 22.5642V25.9457ZM29.2573 26.8144C29.5828 26.8144 29.901 26.7283 30.2122 26.5559C30.5233 26.3836 30.7745 26.1419 30.966 25.8308V24.158H30.0757C29.3195 24.158 28.7787 24.2848 28.4532 24.5385C28.1277 24.7874 27.965 25.132 27.965 25.5724C27.965 26.4004 28.3957 26.8144 29.2573 26.8144ZM41.7475 19.2616L42.1783 20.597C41.8767 20.6975 41.5441 20.7645 41.1803 20.798C40.8213 20.8315 40.4193 20.8483 39.9742 20.8483C40.4289 21.0493 40.7711 21.3077 41.0008 21.6236C41.2306 21.9347 41.3454 22.3177 41.3454 22.7724C41.3454 23.2653 41.2258 23.7057 40.9865 24.0934C40.7471 24.4811 40.4025 24.785 39.9526 25.0052C39.5075 25.2253 38.9762 25.3354 38.3588 25.3354C38.1386 25.3354 37.9471 25.3259 37.7844 25.3067C37.6265 25.2876 37.4709 25.2565 37.3177 25.2134C37.0928 25.3618 36.9803 25.57 36.9803 25.838C36.9803 25.9912 37.0425 26.1252 37.167 26.24C37.2962 26.3501 37.5499 26.4052 37.928 26.4052H39.249C39.7899 26.4052 40.2661 26.4985 40.6777 26.6852C41.0942 26.8671 41.4196 27.1183 41.6542 27.439C41.8935 27.7549 42.0131 28.1139 42.0131 28.5159C42.0131 29.2722 41.6877 29.8585 41.0367 30.2749C40.3858 30.6913 39.4477 30.8995 38.2224 30.8995C37.3512 30.8995 36.6692 30.811 36.1762 30.6339C35.688 30.4568 35.3434 30.1936 35.1424 29.8441C34.9413 29.4947 34.8408 29.0664 34.8408 28.559H36.2839C36.2839 28.8271 36.3342 29.0472 36.4347 29.2195C36.54 29.3918 36.7338 29.5187 37.0162 29.6C37.2986 29.6862 37.7054 29.7293 38.2367 29.7293C39.0265 29.7293 39.5841 29.6312 39.9095 29.4349C40.235 29.2435 40.3977 28.973 40.3977 28.6236C40.3977 28.3125 40.2637 28.0732 39.9957 27.9057C39.7277 27.743 39.3687 27.6616 38.9188 27.6616H37.6193C36.9013 27.6616 36.3748 27.5156 36.0398 27.2236C35.7095 26.9317 35.5444 26.5918 35.5444 26.2042C35.5444 25.6585 35.8268 25.2014 36.3916 24.8329C35.9369 24.5936 35.6042 24.304 35.3936 23.9642C35.1878 23.6195 35.0849 23.2031 35.0849 22.7149C35.0849 22.1789 35.2189 21.7098 35.487 21.3077C35.755 20.9057 36.1259 20.5922 36.5998 20.3672C37.0784 20.1423 37.6289 20.0298 38.2511 20.0298C38.8589 20.0346 39.3663 20.0035 39.7731 19.9365C40.18 19.8694 40.5342 19.7785 40.8357 19.6636C41.142 19.544 41.4459 19.41 41.7475 19.2616ZM38.2654 21.1354C37.7533 21.1354 37.368 21.2814 37.1095 21.5734C36.8511 21.8606 36.7218 22.2363 36.7218 22.7006C36.7218 23.1792 36.8535 23.5645 37.1167 23.8565C37.38 24.1436 37.7701 24.2872 38.287 24.2872C38.7608 24.2872 39.1222 24.1484 39.3711 23.8708C39.6248 23.5932 39.7516 23.1983 39.7516 22.6862C39.7516 21.6524 39.2562 21.1354 38.2654 21.1354ZM45.3136 24.5313C45.3615 25.3115 45.5792 25.8763 45.9669 26.2257C46.3594 26.5751 46.8309 26.7498 47.3813 26.7498C47.7498 26.7498 48.0921 26.6924 48.4079 26.5775C48.7286 26.4626 49.0493 26.2999 49.37 26.0893L50.0664 27.0513C49.7122 27.3385 49.2982 27.5683 48.8244 27.7406C48.3505 27.9129 47.8432 27.999 47.3023 27.999C46.5126 27.999 45.8449 27.8315 45.2992 27.4965C44.7584 27.1614 44.3468 26.6947 44.0644 26.0965C43.7868 25.4982 43.6479 24.8065 43.6479 24.0216C43.6479 23.2606 43.7868 22.5809 44.0644 21.9826C44.342 21.3795 44.7392 20.9033 45.2562 20.5539C45.7731 20.1997 46.3905 20.0226 47.1085 20.0226C48.1136 20.0226 48.9081 20.36 49.4921 21.0349C50.0808 21.7098 50.3751 22.6359 50.3751 23.8134C50.3751 23.9426 50.3703 24.0718 50.3608 24.2011C50.356 24.3255 50.3488 24.4356 50.3392 24.5313H45.3136ZM47.1228 21.2144C46.6203 21.2144 46.2038 21.3939 45.8736 21.7529C45.5433 22.1118 45.3543 22.6718 45.3064 23.4329H48.8172C48.8028 22.7197 48.6497 22.1717 48.3577 21.7888C48.0705 21.4059 47.6589 21.2144 47.1228 21.2144ZM57.8182 20.0226C58.1053 20.0226 58.3638 20.0848 58.5935 20.2093C58.8233 20.3337 59.0028 20.5539 59.132 20.8698C59.266 21.1809 59.333 21.6141 59.333 22.1693V27.8052H57.9043V22.3918C57.9043 21.9946 57.8756 21.7098 57.8182 21.5375C57.7655 21.3652 57.6243 21.279 57.3946 21.279C57.2127 21.279 57.026 21.3365 56.8346 21.4513C56.6479 21.5614 56.4612 21.7529 56.2746 22.0257V27.8052H54.9751V22.3918C54.9751 21.9946 54.9464 21.7098 54.8889 21.5375C54.8363 21.3652 54.6951 21.279 54.4653 21.279C54.2787 21.279 54.092 21.3365 53.9053 21.4513C53.7187 21.5614 53.532 21.7529 53.3453 22.0257V27.8052H51.9094V20.2236H53.1228L53.2305 21.0421C53.4458 20.7406 53.678 20.4965 53.9269 20.3098C54.1805 20.1183 54.4893 20.0226 54.853 20.0226C55.1402 20.0226 55.4011 20.0944 55.6356 20.238C55.8701 20.3768 56.0424 20.6281 56.1525 20.9918C56.3679 20.7047 56.6072 20.4725 56.8705 20.2954C57.1337 20.1136 57.4496 20.0226 57.8182 20.0226ZM62.5402 24.5313C62.588 25.3115 62.8058 25.8763 63.1935 26.2257C63.586 26.5751 64.0574 26.7498 64.6078 26.7498C64.9764 26.7498 65.3186 26.6924 65.6345 26.5775C65.9552 26.4626 66.2759 26.2999 66.5966 26.0893L67.293 27.0513C66.9388 27.3385 66.5248 27.5683 66.0509 27.7406C65.5771 27.9129 65.0697 27.999 64.5289 27.999C63.7391 27.999 63.0714 27.8315 62.5258 27.4965C61.9849 27.1614 61.5733 26.6947 61.2909 26.0965C61.0133 25.4982 60.8745 24.8065 60.8745 24.0216C60.8745 23.2606 61.0133 22.5809 61.2909 21.9826C61.5685 21.3795 61.9658 20.9033 62.4827 20.5539C62.9996 20.1997 63.6171 20.0226 64.335 20.0226C65.3402 20.0226 66.1347 20.36 66.7186 21.0349C67.3073 21.7098 67.6017 22.6359 67.6017 23.8134C67.6017 23.9426 67.5969 24.0718 67.5873 24.2011C67.5825 24.3255 67.5754 24.4356 67.5658 24.5313H62.5402ZM64.3494 21.2144C63.8468 21.2144 63.4304 21.3939 63.1002 21.7529C62.7699 22.1118 62.5808 22.6718 62.533 23.4329H66.0437C66.0294 22.7197 65.8762 22.1717 65.5843 21.7888C65.2971 21.4059 64.8855 21.2144 64.3494 21.2144ZM69.818 27.8052V20.2236H71.2037L71.3257 21.2072C71.6416 20.8243 72.015 20.5324 72.4457 20.3313C72.8765 20.1255 73.3192 20.0226 73.7739 20.0226C74.4823 20.0226 75.0112 20.2212 75.3606 20.6185C75.7148 21.0158 75.8919 21.5686 75.8919 22.277V27.8052H74.2837V23.0739C74.2837 22.4182 74.2167 21.9515 74.0827 21.6739C73.9534 21.3915 73.6591 21.2503 73.1996 21.2503C72.831 21.2503 72.4936 21.3652 72.1873 21.5949C71.8857 21.8199 71.6321 22.0759 71.4263 22.3631V27.8052H69.818ZM84.7636 27.4031C84.486 27.5802 84.1534 27.7238 83.7657 27.8339C83.378 27.944 82.9736 27.999 82.5524 27.999C81.6717 27.999 81.0016 27.7717 80.5421 27.317C80.0874 26.8575 79.86 26.2544 79.86 25.5077V21.3939H78.1729V20.2236H79.86V18.5293L81.4683 18.3354V20.2236H84.0242L83.8447 21.3939H81.4683V25.4934C81.4683 25.9002 81.5688 26.2042 81.7698 26.4052C81.9756 26.6014 82.3106 26.6995 82.7749 26.6995C83.0525 26.6995 83.3062 26.666 83.5359 26.599C83.7705 26.532 83.9859 26.4459 84.1821 26.3406L84.7636 27.4031ZM101.667 17.8975V19.1683H99.5276V26.5272H101.667V27.8052H95.7081V26.5272H97.8476V19.1683H95.7081V17.8975H101.667ZM104.271 27.8052V20.2236H105.657L105.779 21.2072C106.095 20.8243 106.468 20.5324 106.899 20.3313C107.33 20.1255 107.772 20.0226 108.227 20.0226C108.935 20.0226 109.464 20.2212 109.814 20.6185C110.168 21.0158 110.345 21.5686 110.345 22.277V27.8052H108.737V23.0739C108.737 22.4182 108.67 21.9515 108.536 21.6739C108.407 21.3915 108.112 21.2503 107.653 21.2503C107.284 21.2503 106.947 21.3652 106.64 21.5949C106.339 21.8199 106.085 22.0759 105.879 22.3631V27.8052H104.271ZM119.217 27.4031C118.939 27.5802 118.607 27.7238 118.219 27.8339C117.831 27.944 117.427 27.999 117.005 27.999C116.125 27.999 115.455 27.7717 114.995 27.317C114.541 26.8575 114.313 26.2544 114.313 25.5077V21.3939H112.626V20.2236H114.313V18.5293L115.921 18.3354V20.2236H118.477L118.298 21.3939H115.921V25.4934C115.921 25.9002 116.022 26.2042 116.223 26.4052C116.429 26.6014 116.764 26.6995 117.228 26.6995C117.506 26.6995 117.759 26.666 117.989 26.599C118.224 26.532 118.439 26.4459 118.635 26.3406L119.217 27.4031ZM122.833 24.5313C122.881 25.3115 123.099 25.8763 123.486 26.2257C123.879 26.5751 124.35 26.7498 124.901 26.7498C125.269 26.7498 125.612 26.6924 125.927 26.5775C126.248 26.4626 126.569 26.2999 126.89 26.0893L127.586 27.0513C127.232 27.3385 126.818 27.5683 126.344 27.7406C125.87 27.9129 125.363 27.999 124.822 27.999C124.032 27.999 123.364 27.8315 122.819 27.4965C122.278 27.1614 121.866 26.6947 121.584 26.0965C121.306 25.4982 121.167 24.8065 121.167 24.0216C121.167 23.2606 121.306 22.5809 121.584 21.9826C121.861 21.3795 122.259 20.9033 122.776 20.5539C123.293 20.1997 123.91 20.0226 124.628 20.0226C125.633 20.0226 126.428 20.36 127.012 21.0349C127.6 21.7098 127.895 22.6359 127.895 23.8134C127.895 23.9426 127.89 24.0718 127.88 24.2011C127.876 24.3255 127.868 24.4356 127.859 24.5313H122.833ZM124.642 21.2144C124.14 21.2144 123.723 21.3939 123.393 21.7529C123.063 22.1118 122.874 22.6718 122.826 23.4329H126.337C126.322 22.7197 126.169 22.1717 125.877 21.7888C125.59 21.4059 125.178 21.2144 124.642 21.2144ZM130.183 27.8052V26.6565H131.296V21.3652H130.183V20.2236H132.523L132.818 21.9826C133.1 21.346 133.449 20.8626 133.866 20.5324C134.287 20.1973 134.828 20.0298 135.488 20.0298C135.713 20.0298 135.914 20.0489 136.092 20.0872C136.273 20.1207 136.453 20.1662 136.63 20.2236L136.357 23.0165H135.208V21.4729C134.672 21.492 134.211 21.7074 133.823 22.119C133.435 22.5259 133.129 23.1002 132.904 23.8421V26.6565H134.433V27.8052H130.183ZM143.334 17C143.798 17 144.212 17.0407 144.576 17.1221C144.944 17.1987 145.284 17.304 145.595 17.438L145.121 18.5508C144.868 18.4455 144.602 18.3689 144.324 18.3211C144.051 18.2732 143.774 18.2493 143.491 18.2493C142.515 18.2493 142.027 18.6418 142.027 19.4267V20.7693H144.561L144.389 21.9539H142.027V27.8052H140.426V21.9539H138.703V20.7693H140.426V19.4124C140.426 18.6944 140.691 18.1129 141.223 17.6677C141.754 17.2226 142.458 17 143.334 17ZM153.131 25.9457C153.131 26.2472 153.177 26.465 153.268 26.599C153.359 26.733 153.505 26.8336 153.706 26.9006L153.347 27.9918C152.973 27.9488 152.65 27.8459 152.378 27.6831C152.11 27.5204 151.909 27.2739 151.775 26.9436C151.497 27.2978 151.145 27.5635 150.719 27.7406C150.293 27.9129 149.838 27.999 149.355 27.999C148.584 27.999 147.977 27.7836 147.531 27.3529C147.086 26.9173 146.864 26.3477 146.864 25.6442C146.864 24.8448 147.175 24.2298 147.797 23.799C148.419 23.3683 149.31 23.1529 150.468 23.1529H151.552V22.6575C151.552 22.1645 151.404 21.8127 151.107 21.6021C150.81 21.3867 150.396 21.279 149.865 21.279C149.616 21.279 149.314 21.3125 148.96 21.3795C148.606 21.4418 148.235 21.5399 147.847 21.6739L147.452 20.5395C147.926 20.3624 148.391 20.2332 148.845 20.1518C149.3 20.0657 149.721 20.0226 150.109 20.0226C151.124 20.0226 151.88 20.2476 152.378 20.6975C152.88 21.1474 153.131 21.7696 153.131 22.5642V25.9457ZM149.843 26.8144C150.169 26.8144 150.487 26.7283 150.798 26.5559C151.109 26.3836 151.36 26.1419 151.552 25.8308V24.158H150.662C149.905 24.158 149.365 24.2848 149.039 24.5385C148.714 24.7874 148.551 25.132 148.551 25.5724C148.551 26.4004 148.982 26.8144 149.843 26.8144ZM159.605 26.678C159.959 26.678 160.29 26.6158 160.596 26.4913C160.902 26.3669 161.194 26.2089 161.472 26.0175L162.219 27.0513C161.888 27.3337 161.486 27.5635 161.012 27.7406C160.543 27.9129 160.058 27.999 159.555 27.999C158.78 27.999 158.114 27.8363 157.559 27.5108C157.009 27.1806 156.587 26.7211 156.295 26.1324C156.008 25.5389 155.865 24.8448 155.865 24.0503C155.865 23.2797 156.011 22.5929 156.303 21.9898C156.599 21.3819 157.025 20.9033 157.581 20.5539C158.136 20.1997 158.804 20.0226 159.584 20.0226C160.598 20.0226 161.474 20.3265 162.211 20.9344L161.472 21.9467C161.175 21.7409 160.871 21.5853 160.56 21.48C160.249 21.37 159.933 21.3149 159.612 21.3149C159.009 21.3149 158.519 21.5351 158.141 21.9754C157.762 22.4158 157.573 23.1074 157.573 24.0503C157.573 24.998 157.765 25.6729 158.148 26.0749C158.531 26.477 159.017 26.678 159.605 26.678ZM165.9 24.5313C165.947 25.3115 166.165 25.8763 166.553 26.2257C166.945 26.5751 167.417 26.7498 167.967 26.7498C168.336 26.7498 168.678 26.6924 168.994 26.5775C169.315 26.4626 169.635 26.2999 169.956 26.0893L170.652 27.0513C170.298 27.3385 169.884 27.5683 169.41 27.7406C168.936 27.9129 168.429 27.999 167.888 27.999C167.099 27.999 166.431 27.8315 165.885 27.4965C165.344 27.1614 164.933 26.6947 164.65 26.0965C164.373 25.4982 164.234 24.8065 164.234 24.0216C164.234 23.2606 164.373 22.5809 164.65 21.9826C164.928 21.3795 165.325 20.9033 165.842 20.5539C166.359 20.1997 166.976 20.0226 167.694 20.0226C168.7 20.0226 169.494 20.36 170.078 21.0349C170.667 21.7098 170.961 22.6359 170.961 23.8134C170.961 23.9426 170.956 24.0718 170.947 24.2011C170.942 24.3255 170.935 24.4356 170.925 24.5313H165.9ZM167.709 21.2144C167.206 21.2144 166.79 21.3939 166.46 21.7529C166.129 22.1118 165.94 22.6718 165.892 23.4329H169.403C169.389 22.7197 169.236 22.1717 168.944 21.7888C168.656 21.4059 168.245 21.2144 167.709 21.2144Z" fill="#232323"/>
</svg>
