<svg width="344" height="28" viewBox="0 0 344 28" fill="none" xmlns="http://www.w3.org/2000/svg">
<g filter="url(#filter0_d_3205_891)">
<path d="M5.52 16V14.496H7.952V6.304H5.552V4.8H12.048V6.304H9.648V14.496H12.08V16H5.52ZM14.8418 16V8.064H16.3138L16.4578 9.248H16.5378C16.7511 8.864 17.0818 8.53867 17.5298 8.272C17.9778 8.00533 18.4951 7.872 19.0818 7.872C20.0524 7.872 20.7831 8.16533 21.2738 8.752C21.7644 9.33867 22.0098 10.2027 22.0098 11.344V16H20.3138V11.552C20.3138 10.8907 20.1751 10.3787 19.8978 10.016C19.6204 9.65333 19.1831 9.472 18.5858 9.472C17.9991 9.472 17.5084 9.66933 17.1138 10.064C16.7298 10.4587 16.5378 11.0293 16.5378 11.776V16H14.8418ZM25.0435 16L23.3155 8.064H24.9795L25.9395 13.632L27.0755 8.064H28.8995L30.0355 13.632L30.9955 8.064H32.6595L30.9315 16H29.1875L27.9875 10.272L26.7875 16H25.0435ZM36.8613 16.192C36.2319 16.192 35.7039 16.0853 35.2773 15.872C34.8506 15.648 34.5306 15.3547 34.3173 14.992C34.1039 14.6187 33.9973 14.2133 33.9973 13.776C33.9973 12.9973 34.2799 12.3893 34.8453 11.952C35.4213 11.5147 36.2319 11.296 37.2773 11.296H39.3253V11.12C39.3253 9.92533 38.7706 9.328 37.6613 9.328C37.2026 9.328 36.8133 9.42933 36.4933 9.632C36.1839 9.824 35.9759 10.1387 35.8693 10.576H34.1733C34.2586 9.744 34.6159 9.088 35.2453 8.608C35.8853 8.11733 36.6906 7.872 37.6613 7.872C38.8346 7.872 39.6879 8.16 40.2213 8.736C40.7546 9.312 41.0213 10.1067 41.0213 11.12V16H39.5813L39.4373 14.832H39.3253C39.0906 15.2053 38.7973 15.5253 38.4453 15.792C38.0933 16.0587 37.5653 16.192 36.8613 16.192ZM37.1813 14.768C37.8746 14.768 38.3919 14.56 38.7333 14.144C39.0853 13.7173 39.2773 13.1787 39.3093 12.528H37.4533C36.8453 12.528 36.4133 12.6293 36.1573 12.832C35.9119 13.024 35.7893 13.296 35.7893 13.648C35.7893 14 35.9119 14.2773 36.1573 14.48C36.4133 14.672 36.7546 14.768 37.1813 14.768ZM43.607 16V14.528H45.543V10.064C45.543 9.712 45.3723 9.536 45.031 9.536H43.767V8.064H45.671C46.1083 8.064 46.4657 8.192 46.743 8.448C47.0203 8.69333 47.159 9.04 47.159 9.488V9.68H47.239C47.3563 9.08267 47.607 8.63467 47.991 8.336C48.3857 8.02667 48.9563 7.872 49.703 7.872H50.935V9.664H49.207C48.5777 9.664 48.0923 9.88267 47.751 10.32C47.4097 10.7573 47.239 11.28 47.239 11.888V14.528H49.703V16H43.607ZM56.3368 16.192C55.6754 16.192 55.0834 16.0373 54.5608 15.728C54.0381 15.408 53.6221 14.9387 53.3128 14.32C53.0141 13.7013 52.8648 12.9387 52.8648 12.032C52.8648 11.1253 53.0194 10.3627 53.3288 9.744C53.6381 9.12533 54.0541 8.66133 54.5768 8.352C55.1101 8.032 55.7021 7.872 56.3528 7.872C56.9608 7.872 57.4621 7.98933 57.8568 8.224C58.2514 8.448 58.5448 8.736 58.7368 9.088V4.48H60.4328V16H58.9768L58.8328 14.832H58.7368C58.5234 15.248 58.2194 15.5787 57.8248 15.824C57.4408 16.0693 56.9448 16.192 56.3368 16.192ZM56.6888 14.576C57.2968 14.576 57.7981 14.3627 58.1928 13.936C58.5981 13.5093 58.8008 12.8747 58.8008 12.032C58.8008 11.1787 58.5981 10.544 58.1928 10.128C57.7981 9.70133 57.2968 9.488 56.6888 9.488C56.0808 9.488 55.5741 9.70133 55.1688 10.128C54.7741 10.5547 54.5768 11.1947 54.5768 12.048C54.5768 12.8907 54.7741 13.5253 55.1688 13.952C55.5741 14.368 56.0808 14.576 56.6888 14.576ZM63.6105 11.12V9.68H69.1145V11.12H63.6105ZM75.9563 16.192C75.0496 16.192 74.2656 15.9573 73.6043 15.488C72.9429 15.0187 72.4363 14.352 72.0843 13.488C71.7323 12.624 71.5563 11.5947 71.5563 10.4C71.5563 9.20533 71.7323 8.176 72.0843 7.312C72.4363 6.448 72.9429 5.78133 73.6043 5.312C74.2656 4.84267 75.0496 4.608 75.9563 4.608C76.8736 4.608 77.6576 4.84267 78.3083 5.312C78.9696 5.78133 79.4763 6.448 79.8283 7.312C80.1803 8.176 80.3563 9.20533 80.3563 10.4C80.3563 11.5947 80.1803 12.624 79.8283 13.488C79.4763 14.352 78.9696 15.0187 78.3083 15.488C77.6576 15.9573 76.8736 16.192 75.9563 16.192ZM75.9563 14.592C76.7563 14.592 77.4016 14.2347 77.8923 13.52C78.3829 12.7947 78.6283 11.7547 78.6283 10.4C78.6283 9.04533 78.3829 8.01067 77.8923 7.296C77.4016 6.57067 76.7563 6.208 75.9563 6.208C75.1456 6.208 74.4949 6.57067 74.0043 7.296C73.5243 8.01067 73.2843 9.04533 73.2843 10.4C73.2843 11.7547 73.5243 12.7947 74.0043 13.52C74.4949 14.2347 75.1456 14.592 75.9563 14.592ZM84.846 16.192C83.886 16.192 83.1553 15.8987 82.654 15.312C82.1633 14.7147 81.918 13.8507 81.918 12.72V8.064H83.614V12.512C83.614 13.1627 83.7527 13.6747 84.03 14.048C84.318 14.4107 84.7553 14.592 85.342 14.592C85.9287 14.592 86.4193 14.3947 86.814 14C87.2087 13.6053 87.406 13.0347 87.406 12.288V8.064H89.102V16H87.63L87.486 14.816H87.406C87.1927 15.2 86.862 15.5253 86.414 15.792C85.966 16.0587 85.4433 16.192 84.846 16.192ZM96.0078 16C95.2291 16 94.6104 15.8133 94.1518 15.44C93.6931 15.056 93.4638 14.3787 93.4638 13.408V9.504H91.4638V8.064H92.6478C93.1918 8.064 93.5118 7.79733 93.6078 7.264L93.8478 5.984H95.1598V8.064H98.2958V9.504H95.1598V13.376C95.1598 13.792 95.2504 14.0853 95.4318 14.256C95.6238 14.416 95.9491 14.496 96.4078 14.496H98.2638V16H96.0078ZM101.794 16L100.066 8.064H101.73L102.69 13.632L103.826 8.064H105.65L106.786 13.632L107.746 8.064H109.41L107.682 16H105.938L104.738 10.272L103.538 16H101.794ZM113.611 16.192C112.982 16.192 112.454 16.0853 112.027 15.872C111.601 15.648 111.281 15.3547 111.067 14.992C110.854 14.6187 110.747 14.2133 110.747 13.776C110.747 12.9973 111.03 12.3893 111.595 11.952C112.171 11.5147 112.982 11.296 114.027 11.296H116.075V11.12C116.075 9.92533 115.521 9.328 114.411 9.328C113.953 9.328 113.563 9.42933 113.243 9.632C112.934 9.824 112.726 10.1387 112.619 10.576H110.923C111.009 9.744 111.366 9.088 111.995 8.608C112.635 8.11733 113.441 7.872 114.411 7.872C115.585 7.872 116.438 8.16 116.971 8.736C117.505 9.312 117.771 10.1067 117.771 11.12V16H116.331L116.187 14.832H116.075C115.841 15.2053 115.547 15.5253 115.195 15.792C114.843 16.0587 114.315 16.192 113.611 16.192ZM113.931 14.768C114.625 14.768 115.142 14.56 115.483 14.144C115.835 13.7173 116.027 13.1787 116.059 12.528H114.203C113.595 12.528 113.163 12.6293 112.907 12.832C112.662 13.024 112.539 13.296 112.539 13.648C112.539 14 112.662 14.2773 112.907 14.48C113.163 14.672 113.505 14.768 113.931 14.768ZM120.357 16V14.528H122.293V10.064C122.293 9.712 122.122 9.536 121.781 9.536H120.517V8.064H122.421C122.858 8.064 123.216 8.192 123.493 8.448C123.77 8.69333 123.909 9.04 123.909 9.488V9.68H123.989C124.106 9.08267 124.357 8.63467 124.741 8.336C125.136 8.02667 125.706 7.872 126.453 7.872H127.685V9.664H125.957C125.328 9.664 124.842 9.88267 124.501 10.32C124.16 10.7573 123.989 11.28 123.989 11.888V14.528H126.453V16H120.357ZM133.087 16.192C132.425 16.192 131.833 16.0373 131.311 15.728C130.788 15.408 130.372 14.9387 130.063 14.32C129.764 13.7013 129.615 12.9387 129.615 12.032C129.615 11.1253 129.769 10.3627 130.079 9.744C130.388 9.12533 130.804 8.66133 131.327 8.352C131.86 8.032 132.452 7.872 133.103 7.872C133.711 7.872 134.212 7.98933 134.607 8.224C135.001 8.448 135.295 8.736 135.487 9.088V4.48H137.183V16H135.727L135.583 14.832H135.487C135.273 15.248 134.969 15.5787 134.575 15.824C134.191 16.0693 133.695 16.192 133.087 16.192ZM133.439 14.576C134.047 14.576 134.548 14.3627 134.943 13.936C135.348 13.5093 135.551 12.8747 135.551 12.032C135.551 11.1787 135.348 10.544 134.943 10.128C134.548 9.70133 134.047 9.488 133.439 9.488C132.831 9.488 132.324 9.70133 131.919 10.128C131.524 10.5547 131.327 11.1947 131.327 12.048C131.327 12.8907 131.524 13.5253 131.919 13.952C132.324 14.368 132.831 14.576 133.439 14.576ZM148.594 16V4.8H150.386L152.706 9.856L155.026 4.8H156.818V16H155.202V8.032L153.378 12.032H152.034L150.21 8.048V16H148.594ZM161.58 16.192C160.951 16.192 160.423 16.0853 159.996 15.872C159.569 15.648 159.249 15.3547 159.036 14.992C158.823 14.6187 158.716 14.2133 158.716 13.776C158.716 12.9973 158.999 12.3893 159.564 11.952C160.14 11.5147 160.951 11.296 161.996 11.296H164.044V11.12C164.044 9.92533 163.489 9.328 162.38 9.328C161.921 9.328 161.532 9.42933 161.212 9.632C160.903 9.824 160.695 10.1387 160.588 10.576H158.892C158.977 9.744 159.335 9.088 159.964 8.608C160.604 8.11733 161.409 7.872 162.38 7.872C163.553 7.872 164.407 8.16 164.94 8.736C165.473 9.312 165.74 10.1067 165.74 11.12V16H164.3L164.156 14.832H164.044C163.809 15.2053 163.516 15.5253 163.164 15.792C162.812 16.0587 162.284 16.192 161.58 16.192ZM161.9 14.768C162.593 14.768 163.111 14.56 163.452 14.144C163.804 13.7173 163.996 13.1787 164.028 12.528H162.172C161.564 12.528 161.132 12.6293 160.876 12.832C160.631 13.024 160.508 13.296 160.508 13.648C160.508 14 160.631 14.2773 160.876 14.48C161.132 14.672 161.473 14.768 161.9 14.768ZM168.342 16V8.064H169.814L169.958 9.248H170.038C170.251 8.864 170.582 8.53867 171.03 8.272C171.478 8.00533 171.995 7.872 172.582 7.872C173.552 7.872 174.283 8.16533 174.774 8.752C175.264 9.33867 175.51 10.2027 175.51 11.344V16H173.814V11.552C173.814 10.8907 173.675 10.3787 173.398 10.016C173.12 9.65333 172.683 9.472 172.086 9.472C171.499 9.472 171.008 9.66933 170.614 10.064C170.23 10.4587 170.038 11.0293 170.038 11.776V16H168.342ZM180.768 16.192C180.138 16.192 179.61 16.0853 179.184 15.872C178.757 15.648 178.437 15.3547 178.224 14.992C178.01 14.6187 177.904 14.2133 177.904 13.776C177.904 12.9973 178.186 12.3893 178.752 11.952C179.328 11.5147 180.138 11.296 181.184 11.296H183.232V11.12C183.232 9.92533 182.677 9.328 181.568 9.328C181.109 9.328 180.72 9.42933 180.4 9.632C180.09 9.824 179.882 10.1387 179.776 10.576H178.08C178.165 9.744 178.522 9.088 179.152 8.608C179.792 8.11733 180.597 7.872 181.568 7.872C182.741 7.872 183.594 8.16 184.128 8.736C184.661 9.312 184.928 10.1067 184.928 11.12V16H183.488L183.344 14.832H183.232C182.997 15.2053 182.704 15.5253 182.352 15.792C182 16.0587 181.472 16.192 180.768 16.192ZM181.088 14.768C181.781 14.768 182.298 14.56 182.64 14.144C182.992 13.7173 183.184 13.1787 183.216 12.528H181.36C180.752 12.528 180.32 12.6293 180.064 12.832C179.818 13.024 179.696 13.296 179.696 13.648C179.696 14 179.818 14.2773 180.064 14.48C180.32 14.672 180.661 14.768 181.088 14.768ZM190.905 13.712C190.415 13.712 189.961 13.632 189.545 13.472L189.145 13.952C189.017 14.112 188.98 14.2667 189.033 14.416C189.097 14.5547 189.241 14.624 189.465 14.624H191.561C192.489 14.624 193.236 14.8213 193.801 15.216C194.377 15.6 194.665 16.192 194.665 16.992C194.665 17.4933 194.537 17.9467 194.281 18.352C194.036 18.768 193.636 19.0987 193.081 19.344C192.537 19.5893 191.817 19.712 190.921 19.712C189.791 19.712 188.879 19.4987 188.185 19.072C187.503 18.656 187.161 18.0267 187.161 17.184C187.161 16.8853 187.231 16.608 187.369 16.352C187.519 16.1067 187.711 15.8827 187.945 15.68C187.657 15.4667 187.481 15.168 187.417 14.784C187.364 14.3893 187.481 14.0107 187.769 13.648L188.473 12.752C187.972 12.2187 187.721 11.5627 187.721 10.784C187.721 10.2613 187.844 9.78133 188.089 9.344C188.345 8.896 188.708 8.53867 189.177 8.272C189.657 8.00533 190.233 7.872 190.905 7.872C191.343 7.872 191.748 7.936 192.121 8.064H195.113V9.184L193.721 9.264V9.408C193.945 9.824 194.057 10.2827 194.057 10.784C194.057 11.3067 193.929 11.792 193.673 12.24C193.428 12.688 193.071 13.0453 192.601 13.312C192.132 13.5787 191.567 13.712 190.905 13.712ZM190.905 12.352C191.375 12.352 191.759 12.2133 192.057 11.936C192.367 11.6587 192.521 11.2747 192.521 10.784C192.521 10.3147 192.367 9.94133 192.057 9.664C191.759 9.38667 191.375 9.248 190.905 9.248C190.425 9.248 190.031 9.38667 189.721 9.664C189.423 9.94133 189.273 10.3147 189.273 10.784C189.273 11.2747 189.423 11.6587 189.721 11.936C190.031 12.2133 190.425 12.352 190.905 12.352ZM188.761 17.056C188.761 17.4827 188.964 17.7973 189.369 18C189.785 18.2027 190.303 18.304 190.921 18.304C191.583 18.304 192.105 18.192 192.489 17.968C192.873 17.744 193.065 17.4293 193.065 17.024C193.065 16.6827 192.927 16.4107 192.649 16.208C192.372 16.016 191.903 15.92 191.241 15.92H189.369C188.964 16.24 188.761 16.6187 188.761 17.056ZM200.771 16.192C200.003 16.192 199.326 16.0213 198.739 15.68C198.152 15.328 197.694 14.8427 197.363 14.224C197.032 13.6053 196.867 12.8853 196.867 12.064C196.867 11.232 197.027 10.5013 197.347 9.872C197.678 9.24267 198.136 8.752 198.723 8.4C199.32 8.048 200.008 7.872 200.787 7.872C201.555 7.872 202.216 8.048 202.771 8.4C203.326 8.74133 203.752 9.2 204.051 9.776C204.36 10.352 204.515 10.9867 204.515 11.68C204.515 11.7867 204.515 11.904 204.515 12.032C204.515 12.1493 204.51 12.2827 204.499 12.432H198.531C198.584 13.168 198.824 13.728 199.251 14.112C199.678 14.4853 200.179 14.672 200.755 14.672C201.256 14.672 201.651 14.5707 201.939 14.368C202.238 14.1547 202.456 13.8667 202.595 13.504H204.307C204.115 14.2613 203.715 14.9013 203.107 15.424C202.499 15.936 201.72 16.192 200.771 16.192ZM200.771 9.344C200.248 9.344 199.784 9.504 199.379 9.824C198.974 10.1333 198.712 10.5707 198.595 11.136H202.819C202.776 10.6027 202.568 10.1707 202.195 9.84C201.822 9.50933 201.347 9.344 200.771 9.344ZM205.869 16V8.064H207.277L207.421 8.992H207.501C207.639 8.66133 207.853 8.39467 208.141 8.192C208.429 7.97867 208.77 7.872 209.165 7.872C209.549 7.872 209.885 7.968 210.173 8.16C210.461 8.352 210.674 8.62933 210.813 8.992H210.877C211.015 8.672 211.234 8.40533 211.533 8.192C211.831 7.97867 212.199 7.872 212.637 7.872C213.223 7.872 213.666 8.064 213.965 8.448C214.274 8.832 214.429 9.37067 214.429 10.064V16H212.797V10.4C212.797 10.08 212.727 9.82933 212.589 9.648C212.461 9.456 212.253 9.36 211.965 9.36C211.677 9.36 211.437 9.472 211.245 9.696C211.063 9.92 210.973 10.2347 210.973 10.64V16H209.325V10.4C209.325 10.08 209.261 9.82933 209.133 9.648C209.005 9.456 208.797 9.36 208.509 9.36C208.221 9.36 207.981 9.472 207.789 9.696C207.597 9.92 207.501 10.2347 207.501 10.64V16H205.869ZM219.959 16.192C219.191 16.192 218.513 16.0213 217.927 15.68C217.34 15.328 216.881 14.8427 216.551 14.224C216.22 13.6053 216.055 12.8853 216.055 12.064C216.055 11.232 216.215 10.5013 216.535 9.872C216.865 9.24267 217.324 8.752 217.911 8.4C218.508 8.048 219.196 7.872 219.975 7.872C220.743 7.872 221.404 8.048 221.959 8.4C222.513 8.74133 222.94 9.2 223.239 9.776C223.548 10.352 223.703 10.9867 223.703 11.68C223.703 11.7867 223.703 11.904 223.703 12.032C223.703 12.1493 223.697 12.2827 223.687 12.432H217.719C217.772 13.168 218.012 13.728 218.439 14.112C218.865 14.4853 219.367 14.672 219.943 14.672C220.444 14.672 220.839 14.5707 221.127 14.368C221.425 14.1547 221.644 13.8667 221.783 13.504H223.495C223.303 14.2613 222.903 14.9013 222.295 15.424C221.687 15.936 220.908 16.192 219.959 16.192ZM219.959 9.344C219.436 9.344 218.972 9.504 218.567 9.824C218.161 10.1333 217.9 10.5707 217.783 11.136H222.007C221.964 10.6027 221.756 10.1707 221.383 9.84C221.009 9.50933 220.535 9.344 219.959 9.344ZM225.904 16V8.064H227.376L227.52 9.248H227.6C227.814 8.864 228.144 8.53867 228.592 8.272C229.04 8.00533 229.558 7.872 230.144 7.872C231.115 7.872 231.846 8.16533 232.336 8.752C232.827 9.33867 233.072 10.2027 233.072 11.344V16H231.376V11.552C231.376 10.8907 231.238 10.3787 230.96 10.016C230.683 9.65333 230.246 9.472 229.648 9.472C229.062 9.472 228.571 9.66933 228.176 10.064C227.792 10.4587 227.6 11.0293 227.6 11.776V16H225.904ZM239.914 16C239.135 16 238.517 15.8133 238.058 15.44C237.599 15.056 237.37 14.3787 237.37 13.408V9.504H235.37V8.064H236.554C237.098 8.064 237.418 7.79733 237.514 7.264L237.754 5.984H239.066V8.064H242.202V9.504H239.066V13.376C239.066 13.792 239.157 14.0853 239.338 14.256C239.53 14.416 239.855 14.496 240.314 14.496H242.17V16H239.914ZM254.958 16V14.496H257.39V6.304H254.99V4.8H261.486V6.304H259.086V14.496H261.517V16H254.958ZM264.279 16V8.064H265.751L265.895 9.248H265.975C266.189 8.864 266.519 8.53867 266.967 8.272C267.415 8.00533 267.933 7.872 268.519 7.872C269.49 7.872 270.221 8.16533 270.711 8.752C271.202 9.33867 271.447 10.2027 271.447 11.344V16H269.751V11.552C269.751 10.8907 269.613 10.3787 269.335 10.016C269.058 9.65333 268.621 9.472 268.023 9.472C267.437 9.472 266.946 9.66933 266.551 10.064C266.167 10.4587 265.975 11.0293 265.975 11.776V16H264.279ZM278.289 16C277.51 16 276.892 15.8133 276.433 15.44C275.974 15.056 275.745 14.3787 275.745 13.408V9.504H273.745V8.064H274.929C275.473 8.064 275.793 7.79733 275.889 7.264L276.129 5.984H277.441V8.064H280.577V9.504H277.441V13.376C277.441 13.792 277.532 14.0853 277.713 14.256C277.905 14.416 278.23 14.496 278.689 14.496H280.545V16H278.289ZM287.115 16.192C286.347 16.192 285.669 16.0213 285.083 15.68C284.496 15.328 284.037 14.8427 283.707 14.224C283.376 13.6053 283.211 12.8853 283.211 12.064C283.211 11.232 283.371 10.5013 283.691 9.872C284.021 9.24267 284.48 8.752 285.067 8.4C285.664 8.048 286.352 7.872 287.131 7.872C287.899 7.872 288.56 8.048 289.115 8.4C289.669 8.74133 290.096 9.2 290.395 9.776C290.704 10.352 290.859 10.9867 290.859 11.68C290.859 11.7867 290.859 11.904 290.859 12.032C290.859 12.1493 290.853 12.2827 290.843 12.432H284.875C284.928 13.168 285.168 13.728 285.595 14.112C286.021 14.4853 286.523 14.672 287.099 14.672C287.6 14.672 287.995 14.5707 288.283 14.368C288.581 14.1547 288.8 13.8667 288.939 13.504H290.651C290.459 14.2613 290.059 14.9013 289.451 15.424C288.843 15.936 288.064 16.192 287.115 16.192ZM287.115 9.344C286.592 9.344 286.128 9.504 285.723 9.824C285.317 10.1333 285.056 10.5707 284.939 11.136H289.163C289.12 10.6027 288.912 10.1707 288.539 9.84C288.165 9.50933 287.691 9.344 287.115 9.344ZM293.045 16V14.528H294.981V10.064C294.981 9.712 294.81 9.536 294.469 9.536H293.205V8.064H295.109C295.546 8.064 295.903 8.192 296.181 8.448C296.458 8.69333 296.597 9.04 296.597 9.488V9.68H296.677C296.794 9.08267 297.045 8.63467 297.429 8.336C297.823 8.02667 298.394 7.872 299.141 7.872H300.373V9.664H298.645C298.015 9.664 297.53 9.88267 297.189 10.32C296.847 10.7573 296.677 11.28 296.677 11.888V14.528H299.141V16H293.045ZM302.51 19.52V18.032H303.806C304.18 18.032 304.446 17.952 304.606 17.792C304.777 17.6427 304.862 17.3867 304.862 17.024V9.504H302.846V8.064H304.862V6.96C304.862 6.07467 305.081 5.44 305.518 5.056C305.956 4.672 306.58 4.48 307.39 4.48H309.326V5.968H307.598C307.225 5.968 306.958 6.04267 306.798 6.192C306.638 6.34133 306.558 6.60267 306.558 6.976V8.064H309.326V9.504H306.558V17.04C306.558 17.9253 306.34 18.56 305.902 18.944C305.465 19.328 304.836 19.52 304.014 19.52H302.51ZM315.08 16.192C314.451 16.192 313.923 16.0853 313.496 15.872C313.069 15.648 312.749 15.3547 312.536 14.992C312.323 14.6187 312.216 14.2133 312.216 13.776C312.216 12.9973 312.499 12.3893 313.064 11.952C313.64 11.5147 314.451 11.296 315.496 11.296H317.544V11.12C317.544 9.92533 316.989 9.328 315.88 9.328C315.421 9.328 315.032 9.42933 314.712 9.632C314.403 9.824 314.195 10.1387 314.088 10.576H312.392C312.477 9.744 312.835 9.088 313.464 8.608C314.104 8.11733 314.909 7.872 315.88 7.872C317.053 7.872 317.907 8.16 318.44 8.736C318.973 9.312 319.24 10.1067 319.24 11.12V16H317.8L317.656 14.832H317.544C317.309 15.2053 317.016 15.5253 316.664 15.792C316.312 16.0587 315.784 16.192 315.08 16.192ZM315.4 14.768C316.093 14.768 316.611 14.56 316.952 14.144C317.304 13.7173 317.496 13.1787 317.528 12.528H315.672C315.064 12.528 314.632 12.6293 314.376 12.832C314.131 13.024 314.008 13.296 314.008 13.648C314.008 14 314.131 14.2773 314.376 14.48C314.632 14.672 314.973 14.768 315.4 14.768ZM325.506 16.192C324.77 16.192 324.108 16.0213 323.522 15.68C322.946 15.3387 322.492 14.8587 322.162 14.24C321.831 13.6107 321.666 12.8747 321.666 12.032C321.666 11.1893 321.831 10.4587 322.162 9.84C322.503 9.22133 322.962 8.74133 323.538 8.4C324.114 8.048 324.77 7.872 325.506 7.872C326.519 7.872 327.335 8.128 327.954 8.64C328.583 9.14133 328.983 9.83467 329.154 10.72H327.378C327.271 10.336 327.052 10.032 326.722 9.808C326.402 9.584 325.991 9.472 325.49 9.472C325.127 9.472 324.78 9.568 324.45 9.76C324.13 9.952 323.868 10.24 323.666 10.624C323.474 10.9973 323.378 11.4667 323.378 12.032C323.378 12.5867 323.474 13.056 323.666 13.44C323.868 13.824 324.13 14.1173 324.45 14.32C324.78 14.512 325.127 14.608 325.49 14.608C326.002 14.608 326.412 14.496 326.722 14.272C327.031 14.048 327.25 13.7387 327.378 13.344H329.154C328.94 14.2187 328.524 14.912 327.906 15.424C327.287 15.936 326.487 16.192 325.506 16.192ZM335.084 16.192C334.316 16.192 333.638 16.0213 333.052 15.68C332.465 15.328 332.006 14.8427 331.676 14.224C331.345 13.6053 331.18 12.8853 331.18 12.064C331.18 11.232 331.34 10.5013 331.66 9.872C331.99 9.24267 332.449 8.752 333.036 8.4C333.633 8.048 334.321 7.872 335.1 7.872C335.868 7.872 336.529 8.048 337.084 8.4C337.638 8.74133 338.065 9.2 338.364 9.776C338.673 10.352 338.828 10.9867 338.828 11.68C338.828 11.7867 338.828 11.904 338.828 12.032C338.828 12.1493 338.822 12.2827 338.812 12.432H332.844C332.897 13.168 333.137 13.728 333.564 14.112C333.99 14.4853 334.492 14.672 335.068 14.672C335.569 14.672 335.964 14.5707 336.252 14.368C336.55 14.1547 336.769 13.8667 336.908 13.504H338.62C338.428 14.2613 338.028 14.9013 337.42 15.424C336.812 15.936 336.033 16.192 335.084 16.192ZM335.084 9.344C334.561 9.344 334.097 9.504 333.692 9.824C333.286 10.1333 333.025 10.5707 332.908 11.136H337.132C337.089 10.6027 336.881 10.1707 336.508 9.84C336.134 9.50933 335.66 9.344 335.084 9.344Z" fill="#232323"/>
<path d="M4 18H186.489V18.8H4V18ZM195.269 18H301.708V18.8H195.269V18ZM307.245 18H339.788V18.8H307.245V18Z" fill="#232323"/>
</g>
<defs>
<filter id="filter0_d_3205_891" x="0" y="4.47998" width="343.788" height="23.2321" filterUnits="userSpaceOnUse" color-interpolation-filters="sRGB">
<feFlood flood-opacity="0" result="BackgroundImageFix"/>
<feColorMatrix in="SourceAlpha" type="matrix" values="0 0 0 0 0 0 0 0 0 0 0 0 0 0 0 0 0 0 127 0" result="hardAlpha"/>
<feOffset dy="4"/>
<feGaussianBlur stdDeviation="2"/>
<feComposite in2="hardAlpha" operator="out"/>
<feColorMatrix type="matrix" values="0 0 0 0 0 0 0 0 0 0 0 0 0 0 0 0 0 0 0.25 0"/>
<feBlend mode="normal" in2="BackgroundImageFix" result="effect1_dropShadow_3205_891"/>
<feBlend mode="normal" in="SourceGraphic" in2="effect1_dropShadow_3205_891" result="shape"/>
</filter>
</defs>
</svg>
